# xmcd
#
# Track frame offsets: 
#        183
#        20030
#        32968
#        48038
#        61585
#        73123
#        85090
#        95903
#        107990
#        122810
#        136720
#        150485
#        161668
#        174783
#        183495
#        197398
#        228900
#        241308
#        252350
#        265805
#        278245
#        298408
#
# Disc length: 4168 seconds
#
# Revision: 5
# Processed by: cddbd v1.5.2PL0 Copyright (c) Steve Scherf et al.
# Submitted via: ExactAudioCopyFreeDBPlugin 1.0
#
DISCID=33104616
DTITLE=Various Artist - The Great Tomato Blues Package Disc 1
DYEAR=1989
DGENRE=Blues
TTITLE0=Johnny Shines - Too Wet to Plow
TTITLE1=Mississippi Fred McDowell - You Got to Move
TTITLE2=Peg Leg Sam - Joshua Fit the Battle of Jericho
TTITLE3=Lousiana Red - Sweet Blood Call
TTITLE4=Lighnin' Hopkins - Cryin' Shame
TTITLE5=Sonny Terry - Playing with the Thing
TTITLE6=Sonny Boy Wiiliams - Fattening Frogs for Snakes
TTITLE7=Roosevelt Sykes - Music is My Business
TTITLE8=Jelly Roll Morton - Dead Man Blues
TTITLE9=Louis Armstrong - St. Louis Blues
TTITLE10=Bessie Smith - Alexander's Ragtime Band
TTITLE11=Champion Jack Dupree - Shake Baby Shake
TTITLE12=Willie Mabon - Poison Ivy
TTITLE13=Billie Holiday - Please Don't Talk About Me When I'm Gone
TTITLE14=Charlie Parker - Parker's Mood
TTITLE15=Big Mama Thornton - Ball and Chain
TTITLE16=Little Walter - Juke
TTITLE17=Howlin' Wolf - Little Red Rooster
TTITLE18=Buster Brown - Fanny Mae
TTITLE19=Elmore James - The Sky is Crying
TTITLE20=Aretha Franklin - There is a Fountain
TTITLE21=Ray Charles - Blues is My Middle Name
EXTD=
EXTT0=
EXTT1=
EXTT2=
EXTT3=
EXTT4=
EXTT5=
EXTT6=
EXTT7=
EXTT8=
EXTT9=
EXTT10=
EXTT11=
EXTT12=
EXTT13=
EXTT14=
EXTT15=
EXTT16=
EXTT17=
EXTT18=
EXTT19=
EXTT20=
EXTT21=
PLAYORDER=
